HIERARCHY
ROOT Hips
{
 OFFSET 0.000000 0.000000 0.000000
 CHANNELS 6 Xposition Yposition Zposition Yrotation Xrotation Zrotation
 JOINT Chest
 {
  OFFSET 0.000000 9.585900 0.002600
  CHANNELS 3 Yrotation Xrotation Zrotation
  JOINT Chest2
  {
   OFFSET 0.000000 9.601200 -0.005300
   CHANNELS 3 Yrotation Xrotation Zrotation
   JOINT Chest3
   {
    OFFSET 0.000000 9.561800 0.000000
    CHANNELS 3 Yrotation Xrotation Zrotation
    JOINT Chest4
    {
     OFFSET 0.000000 9.552100 0.000000
     CHANNELS 3 Yrotation Xrotation Zrotation
     JOINT Neck
     {
      OFFSET 0.000000 14.453000 0.000000
      CHANNELS 3 Yrotation Xrotation Zrotation
      JOINT Head
      {
       OFFSET 0.000000 8.936500 -0.011300
       CHANNELS 3 Yrotation Xrotation Zrotation
       End Site
       {
        OFFSET 0.000000 17.073600 -0.006000
       }
      }
     }
     JOINT RightCollar
     {
      OFFSET -2.921100 9.558500 0.000000
      CHANNELS 3 Yrotation Xrotation Zrotation
      JOINT RightShoulder
      {
       OFFSET -13.519700 0.000000 0.000000
       CHANNELS 3 Yrotation Xrotation Zrotation
       JOINT RightElbow
       {
        OFFSET 0.000000 -29.696600 0.000000
        CHANNELS 3 Yrotation Xrotation Zrotation
        JOINT RightWrist
        {
         OFFSET 0.000000 -24.004700 0.000000
         CHANNELS 3 Yrotation Xrotation Zrotation
         End Site
         {
          OFFSET 0.000000 -17.728500 0.000000
         }
        }
       }
      }
     }
     JOINT LeftCollar
     {
      OFFSET 2.921100 9.558500 0.000000
      CHANNELS 3 Yrotation Xrotation Zrotation
      JOINT LeftShoulder
      {
       OFFSET 13.519700 0.000000 0.000000
       CHANNELS 3 Yrotation Xrotation Zrotation
       JOINT LeftElbow
       {
        OFFSET 0.000000 -29.696600 0.000000
        CHANNELS 3 Yrotation Xrotation Zrotation
        JOINT LeftWrist
        {
         OFFSET 0.000000 -24.004700 0.000000
         CHANNELS 3 Yrotation Xrotation Zrotation
         End Site
         {
          OFFSET 0.000000 -17.728500 0.000000
         }
        }
       }
      }
     }
    }
   }
  }
 }
 JOINT RightHip
 {
  OFFSET -7.771700 -0.012900 -0.001300
  CHANNELS 3 Yrotation Xrotation Zrotation
  JOINT RightKnee
  {
   OFFSET 0.000000 -40.869800 0.001200
   CHANNELS 3 Yrotation Xrotation Zrotation
   JOINT RightAnkle
   {
    OFFSET 0.000000 -39.717900 0.002100
    CHANNELS 3 Yrotation Xrotation Zrotation
    JOINT RightToe
    {
     OFFSET 0.000000 -4.965400 11.033500
     CHANNELS 3 Yrotation Xrotation Zrotation
     End Site
     {
      OFFSET 0.000000 -1.423100 5.872300
     }
    }
   }
  }
 }
 JOINT LeftHip
 {
  OFFSET 7.771700 -0.012900 -0.001300
  CHANNELS 3 Yrotation Xrotation Zrotation
  JOINT LeftKnee
  {
   OFFSET 0.000000 -40.869800 0.001200
   CHANNELS 3 Yrotation Xrotation Zrotation
   JOINT LeftAnkle
   {
    OFFSET 0.000000 -39.717900 0.002100
    CHANNELS 3 Yrotation Xrotation Zrotation
    JOINT LeftToe
    {
     OFFSET 0.000000 -4.965400 11.033500
     CHANNELS 3 Yrotation Xrotation Zrotation
     End Site
     {
      OFFSET 0.000000 -1.423100 5.872300
     }
    }
   }
  }
 }
}
MOTION
Frames: 16
Frame Time: 0.008333
-8.786991 51.115040 26.034842 -179.187018 -33.776060 -9.740039 -0.075646 13.935355 3.767641 -0.132367 7.950392 2.154131 -0.118439 9.938324 2.696285 -0.132351 7.950431 2.154158 3.853683 21.980645 -3.426070 4.970862 -2.030775 -4.604642 -0.663644 3.782203 -2.336494 -16.756644 -4.786424 4.974946 -22.014318 -76.657225 37.244777 12.563046 6.580417 -8.068228 -10.306174 2.890858 -3.336093 5.870122 0.611082 -0.256073 -89.159864 -66.696421 100.901762 15.126149 -31.713486 6.168792 -13.392875 -31.967336 5.696164 17.848631 82.116909 13.380609 -1.854464 -8.139865 -2.931732 -0.216049 -5.809663 3.289653 -12.444189 -46.029179 12.684452 -175.654198 78.047127 179.337216 -1.322925 -18.434670 2.587492 -0.006384 0.008888 0.000060
-8.787594 51.113265 26.049620 -179.233840 -33.768660 -9.718503 -0.053435 13.951218 3.773999 -0.133103 8.004240 2.164908 -0.099390 9.969802 2.704062 -0.117373 7.975667 2.160117 3.864624 22.001196 -3.436583 4.985724 -2.005173 -4.619074 -0.664184 3.769587 -2.349567 -16.779506 -4.770367 4.984126 -22.311498 -76.615672 37.559905 12.527357 6.511113 -8.067650 -10.316570 2.906513 -3.347378 5.823336 0.557993 -0.256573 -89.219394 -66.509591 100.971597 15.077110 -31.758461 6.089067 -13.317792 -31.844666 5.610442 18.300036 82.080452 13.856326 -1.962948 -8.410754 -2.297287 -0.199568 -5.933216 3.060958 -12.355951 -46.049540 12.683962 -175.803302 78.060623 179.205333 -1.375152 -18.424024 2.621427 -0.014355 0.013218 -0.003147
-8.785108 51.109160 26.066228 -179.359745 -33.747147 -9.667497 0.035911 13.941787 3.795612 -0.132616 8.056200 2.174567 -0.081322 9.999914 2.711685 -0.103250 7.999839 2.165858 3.875371 22.018951 -3.444993 4.999814 -1.983007 -4.631176 -0.666983 3.759592 -2.362730 -16.798012 -4.746530 4.999698 -22.672883 -76.560890 37.930960 12.478068 6.444509 -8.081426 -10.321627 2.896409 -3.349769 5.778348 0.522363 -0.260799 -89.245288 -66.338625 101.000712 15.023237 -31.781109 5.994526 -13.220422 -31.758789 5.554647 18.845566 82.027033 14.420105 -2.046058 -8.713477 -1.675946 -0.177008 -5.940114 2.746611 -12.243838 -46.085637 12.718038 -175.879264 78.069116 179.141667 -1.405487 -18.420403 2.643771 -0.015031 0.014368 -0.006201
-8.783028 51.104266 26.081027 -179.457135 -33.720085 -9.626927 0.068286 14.002496 3.813972 -0.096151 8.035664 2.174537 -0.065066 10.028103 2.719489 -0.090517 8.022456 2.171803 3.887230 22.034839 -3.452850 5.014934 -1.962956 -4.642936 -0.672971 3.755930 -2.377109 -16.806223 -4.716910 5.020044 -23.058799 -76.506006 38.314573 12.427586 6.387627 -8.110013 -10.323524 2.892041 -3.346864 5.737236 0.493052 -0.271752 -89.283713 -66.194016 101.042885 14.961150 -31.778076 5.881592 -13.177469 -31.704264 5.477128 19.382757 82.002097 15.001749 -2.037616 -9.029866 -1.179211 -0.136607 -5.891904 2.438135 -12.179147 -46.124054 12.754045 -175.917970 78.075426 179.104457 -1.417953 -18.415975 2.654020 -0.005623 0.012291 -0.007068
-8.779064 51.099645 26.092881 -179.524271 -33.696047 -9.612583 0.102582 14.025173 3.841874 -0.083617 8.057709 2.180183 -0.050812 10.053571 2.727773 -0.079345 8.042837 2.178219 3.900813 22.048713 -3.461182 5.032110 -1.945166 -4.655583 -0.680747 3.757335 -2.392664 -16.806584 -4.683230 5.043780 -23.417062 -76.464434 38.659500 12.379444 6.346305 -8.149497 -10.323539 2.891725 -3.339130 5.709710 0.470438 -0.293432 -89.341249 -66.079428 101.095011 14.896266 -31.744766 5.748327 -13.178017 -31.629161 5.398098 19.386256 81.971626 15.049771 -1.900241 -9.367869 -0.748847 -0.092629 -5.474188 2.009522 -12.123522 -46.159703 12.792781 -175.865824 78.077232 179.171176 -1.423280 -18.412643 2.667051 -0.004616 0.012870 -0.006396
-8.776573 51.095076 26.101057 -179.557165 -33.676600 -9.607012 0.123537 14.015639 3.855655 -0.082636 8.082163 2.185446 -0.041218 10.113913 2.746045 -0.069242 8.059738 2.185610 3.914841 22.060149 -3.470496 5.050084 -1.930236 -4.669394 -0.686370 3.761353 -2.410230 -16.809413 -4.643221 5.071136 -23.695845 -76.445563 38.922665 12.339649 6.319229 -8.201529 -10.327127 2.895349 -3.330745 5.694573 0.400903 -0.322520 -89.309327 -66.003299 101.031515 14.833749 -31.670513 5.596712 -13.193025 -31.532513 5.292252 18.960844 81.957144 14.659871 -1.668149 -9.766755 -0.314841 -0.058913 -4.456727 1.357733 -12.084901 -46.190042 12.835614 -175.817637 78.076282 179.215755 -1.459247 -18.402392 2.702744 -0.003614 0.009884 -0.005392
-8.775418 51.088009 26.109610 -179.596859 -33.636918 -9.588532 0.135689 14.031806 3.863369 -0.069212 8.060882 2.185118 -0.032177 10.170582 2.765710 -0.060029 8.072430 2.193533 3.929567 22.068805 -3.480800 5.069039 -1.918442 -4.684461 -0.687170 3.767806 -2.428378 -16.819416 -4.597669 5.098319 -23.874212 -76.451340 39.089014 12.316284 6.302413 -8.263894 -10.335348 2.903255 -3.327017 5.696705 0.413585 -0.349000 -89.495009 -65.985733 101.175062 14.775205 -31.548692 5.431718 -13.189715 -31.480469 5.178350 18.205219 81.988744 13.957029 -1.403252 -10.181219 0.121537 -0.029663 -3.324576 0.693763 -12.069490 -46.241428 12.873079 -176.018919 78.074069 179.007199 -1.517913 -18.390553 2.723150 -0.006265 0.004926 -0.007028
-8.774426 51.080238 26.116684 -179.634550 -33.589298 -9.569477 0.146607 14.048721 3.870681 -0.064713 8.134719 2.205410 -0.017754 10.122339 2.760610 -0.052055 8.082152 2.200604 3.945980 22.073988 -3.490836 5.089729 -1.910658 -4.699575 -0.686076 3.772898 -2.439565 -16.834273 -4.551395 5.118744 -23.953876 -76.479798 39.161486 12.312331 6.294827 -8.325724 -10.342210 2.855131 -3.331583 5.718813 0.490896 -0.358458 -89.739797 -66.041019 101.350672 14.725147 -31.383626 5.265024 -13.186067 -31.445261 5.065722 17.501754 82.040957 13.311400 -1.178141 -10.614860 0.573729 -0.019262 -2.414018 0.156126 -12.058596 -46.301640 12.901570 -176.108483 78.069422 178.915729 -1.541320 -18.380633 2.732781 -0.001838 0.001419 -0.007194
-8.773350 51.073986 26.119687 -179.657529 -33.550917 -9.558365 0.143435 14.138802 3.883151 -0.047529 8.066304 2.201701 -0.010424 10.156474 2.771341 -0.046877 8.064525 2.200624 3.967148 22.101161 -3.492237 5.082122 -1.957596 -4.718303 -0.686932 3.747568 -2.449237 -16.847969 -4.454449 5.129242 -23.951667 -76.526958 39.157048 12.324757 6.291902 -8.379808 -10.348465 2.912665 -3.330631 5.747533 0.465421 -0.374629 -89.981417 -66.177892 101.494715 14.689929 -31.184340 5.103405 -13.219528 -31.395445 4.962129 17.212842 82.095099 13.065014 -1.036574 -11.068785 1.007230 -0.018496 -1.682343 -0.261987 -12.048545 -46.350141 12.922088 -176.109526 78.063311 178.915468 -1.548944 -18.374021 2.743166 -0.000045 -0.001892 -0.007999
-8.771806 51.066577 26.123507 -179.675519 -33.488700 -9.551336 0.142983 14.176772 3.894120 -0.039871 8.008187 2.199450 -0.005315 10.186317 2.779045 -0.045359 8.018221 2.192697 3.979701 22.126722 -3.488810 5.138982 -1.881351 -4.719482 -0.686830 3.772906 -2.442481 -16.861369 -4.364220 5.135728 -23.891105 -76.584176 39.095635 12.330616 6.240493 -8.396722 -10.357380 3.017739 -3.330819 5.784915 0.440511 -0.379617 -90.263228 -66.399535 101.656787 14.666724 -30.954491 4.950579 -13.317697 -31.364560 4.890758 17.414404 82.144370 13.280174 -0.960889 -11.539871 1.359362 -0.020528 -1.089581 -0.545460 -12.032563 -46.427094 12.941936 -176.253425 78.054820 178.787363 -1.591570 -18.366018 2.757010 0.003241 -0.004525 -0.007697
-8.769922 51.058440 26.128099 -179.693374 -33.405402 -9.543713 0.144512 14.179610 3.904015 -0.037578 8.080712 2.213769 -0.000194 10.050980 2.761064 -0.042007 8.179898 2.228814 3.978832 21.994835 -3.534301 5.198337 -1.807500 -4.719244 -0.682230 3.681015 -2.452948 -16.876296 -4.327456 5.140182 -23.944790 -76.673683 39.160348 12.336386 6.240235 -8.421727 -10.363738 2.929863 -3.340811 5.807297 0.389668 -0.380113 -90.447554 -66.687794 101.717539 14.654845 -30.690309 4.809692 -13.475600 -31.363395 4.854938 17.961065 82.209122 13.815503 -0.920782 -12.022750 1.599101 -0.022797 -0.613535 -0.700151 -12.049166 -46.517041 12.976486 -176.613629 78.049510 178.435152 -1.668465 -18.361178 2.763304 -0.000451 -0.004532 -0.009819
-8.768223 51.052129 26.129817 -179.700750 -33.328247 -9.536300 0.137982 14.147489 3.905142 -0.035680 8.155743 2.226476 0.001699 10.110837 2.776312 -0.038447 8.135380 2.224849 4.024182 22.042566 -3.529772 5.201201 -1.885567 -4.750561 -0.677424 3.713832 -2.436127 -16.888974 -4.374204 5.149582 -23.832185 -76.704769 39.028432 12.391445 6.296393 -8.490227 -10.370968 2.890240 -3.351781 5.832247 0.340704 -0.375344 -90.661074 -67.028245 101.802065 14.655522 -30.395194 4.682065 -13.672532 -31.342827 4.834291 18.581491 82.253847 14.409671 -0.900524 -12.470558 1.737937 -0.024060 -0.254068 -0.756288 -12.049127 -46.606990 12.982721 -176.813115 78.040604 178.255973 -1.698892 -18.354782 2.767779 -0.000706 -0.006658 -0.013513
-8.765426 51.046350 26.131045 -179.701911 -33.244149 -9.532412 0.137805 14.178365 3.920234 -0.036740 8.136194 2.227011 0.001997 10.140809 2.786039 -0.038267 8.112873 2.223880 4.056256 22.065824 -3.530445 5.221076 -1.910654 -4.770097 -0.681066 3.733349 -2.424539 -16.892012 -4.383096 5.156396 -23.811637 -76.713994 38.979906 12.415802 6.313873 -8.525949 -10.382113 2.878785 -3.362034 5.896273 0.396267 -0.342399 -91.160705 -67.428215 102.143462 14.652796 -30.076671 4.581176 -13.893394 -31.336229 4.838709 19.155334 82.299494 14.954057 -0.881188 -12.874384 1.791372 -0.024052 0.007848 -0.742421 -12.039223 -46.708640 12.980009 -177.002543 78.027626 178.099293 -1.724143 -18.348898 2.778823 -0.007604 -0.008716 -0.023092
-8.760772 51.045115 26.125613 -179.700529 -33.201539 -9.533180 0.146872 14.247213 3.938228 -0.037823 8.114367 2.228437 -0.000641 10.121901 2.786625 -0.034958 8.135307 2.232962 4.077790 22.066641 -3.538026 5.246735 -1.907808 -4.783757 -0.692690 3.736655 -2.417713 -16.897328 -4.373771 5.163794 -23.939023 -76.712497 39.089663 12.423919 6.329129 -8.545789 -10.391591 2.872617 -3.369230 5.928144 0.401475 -0.321707 -91.516390 -67.844065 102.349135 14.635009 -29.730051 4.505316 -14.099855 -31.293297 4.851789 19.633290 82.346581 15.411242 -0.844697 -13.237513 1.764066 -0.019030 0.190623 -0.675218 -12.047572 -46.751752 12.989629 -177.175205 78.018932 177.940957 -1.757192 -18.355046 2.778222 -0.003564 -0.007257 -0.022639
-8.754107 51.038581 26.128090 -179.705628 -33.098432 -9.533377 0.150902 14.226897 3.954560 -0.036483 8.114764 2.233136 -0.009741 10.061035 2.778695 -0.024074 8.197536 2.249813 4.095718 22.068764 -3.545658 5.268494 -1.903591 -4.796584 -0.712689 3.745680 -2.413625 -16.913190 -4.363735 5.178058 -24.179491 -76.682741 39.319956 12.419453 6.338983 -8.570465 -10.397721 2.873572 -3.372313 5.933593 0.381441 -0.311260 -91.799780 -68.264674 102.504143 14.609507 -29.356050 4.429004 -14.299969 -31.328345 4.898708 19.912320 82.385605 15.689496 -0.793018 -13.531019 1.676627 -0.010634 0.308766 -0.577012 -12.080162 -46.860677 13.025999 -177.364351 78.008712 177.767625 -1.794839 -18.359203 2.776593 0.008731 -0.004089 -0.015055
-8.744164 51.032266 26.129833 -179.711343 -32.998869 -9.544553 0.159487 14.205894 3.979617 -0.033714 8.114913 2.238065 -0.009532 10.064548 2.789493 -0.023464 8.174743 2.245866 4.107518 22.070000 -3.550920 5.294402 -1.882898 -4.804878 -0.732420 3.775748 -2.410833 -16.941116 -4.347928 5.200712 -24.527242 -76.631559 39.665201 12.397563 6.338744 -8.604680 -10.400820 2.899287 -3.370586 5.930690 0.360648 -0.307438 -92.065388 -68.673326 102.662060 14.576864 -28.968479 4.346130 -14.474664 -31.376536 4.962397 19.949113 82.430483 15.744446 -0.747216 -13.760052 1.564341 0.003167 0.369713 -0.467623 -12.134219 -46.961305 13.086373 -177.499786 78.001262 177.638398 -1.810745 -18.375690 2.789897 -0.001652 0.010496 -0.030434
